<svg width="64" height="68" viewBox="0 0 64 68" fill="none" xmlns="http://www.w3.org/2000/svg">
    <path
        d="M58 34C58 24.75 53 16.25 45 11.5C36.875 6.875 27 6.875 19 11.5C10.875 16.25 6 24.75 6 34C6 43.375 10.875 51.875 19 56.625C27 61.25 36.875 61.25 45 56.625C53 51.875 58 43.375 58 34ZM0 34C0 22.625 6 12.125 16 6.375C25.875 0.625 38 0.625 48 6.375C57.875 12.125 64 22.625 64 34C64 45.5 57.875 56 48 61.75C38 67.5 25.875 67.5 16 61.75C6 56 0 45.5 0 34ZM29 17C29 15.375 30.25 14 32 14C33.625 14 35 15.375 35 17V32.5L45.625 39.5C47 40.5 47.375 42.375 46.5 43.75C45.5 45.125 43.625 45.5 42.25 44.5L30.25 36.5C29.5 36 29 35 29 34V17Z"
        fill="white" />
</svg>