<svg width="45" height="45" viewBox="0 0 45 45" fill="none" xmlns="http://www.w3.org/2000/svg">
    <circle cx="22.5" cy="22.5" r="22.5" fill="#40FFC3" fill-opacity="0.1" />
    <path
        d="M22.5 17.6094C25.4531 17.6094 27.8906 20.0469 27.8906 23C27.8906 26 25.4531 28.3906 22.5 28.3906C19.5 28.3906 17.1094 26 17.1094 23C17.1094 20.0469 19.5 17.6094 22.5 17.6094ZM22.5 26.5156C24.4219 26.5156 25.9688 24.9688 25.9688 23C25.9688 21.0781 24.4219 19.5312 22.5 19.5312C20.5312 19.5312 18.9844 21.0781 18.9844 23C18.9844 24.9688 20.5781 26.5156 22.5 26.5156ZM29.3438 17.4219C29.3438 16.7188 28.7812 16.1562 28.0781 16.1562C27.375 16.1562 26.8125 16.7188 26.8125 17.4219C26.8125 18.125 27.375 18.6875 28.0781 18.6875C28.7812 18.6875 29.3438 18.125 29.3438 17.4219ZM32.9062 18.6875C33 20.4219 33 25.625 32.9062 27.3594C32.8125 29.0469 32.4375 30.5 31.2188 31.7656C30 32.9844 28.5 33.3594 26.8125 33.4531C25.0781 33.5469 19.875 33.5469 18.1406 33.4531C16.4531 33.3594 15 32.9844 13.7344 31.7656C12.5156 30.5 12.1406 29.0469 12.0469 27.3594C11.9531 25.625 11.9531 20.4219 12.0469 18.6875C12.1406 17 12.5156 15.5 13.7344 14.2812C15 13.0625 16.4531 12.6875 18.1406 12.5938C19.875 12.5 25.0781 12.5 26.8125 12.5938C28.5 12.6875 30 13.0625 31.2188 14.2812C32.4375 15.5 32.8125 17 32.9062 18.6875ZM30.6562 29.1875C31.2188 27.8281 31.0781 24.5469 31.0781 23C31.0781 21.5 31.2188 18.2188 30.6562 16.8125C30.2812 15.9219 29.5781 15.1719 28.6875 14.8438C27.2812 14.2812 24 14.4219 22.5 14.4219C20.9531 14.4219 17.6719 14.2812 16.3125 14.8438C15.375 15.2188 14.6719 15.9219 14.2969 16.8125C13.7344 18.2188 13.875 21.5 13.875 23C13.875 24.5469 13.7344 27.8281 14.2969 29.1875C14.6719 30.125 15.375 30.8281 16.3125 31.2031C17.6719 31.7656 20.9531 31.625 22.5 31.625C24 31.625 27.2812 31.7656 28.6875 31.2031C29.5781 30.8281 30.3281 30.125 30.6562 29.1875Z"
        fill="#C5C5C5" />
</svg>