<svg width="17" height="14" viewBox="0 0 17 14" fill="none" xmlns="http://www.w3.org/2000/svg">
    <path
        d="M9 1C5.125 1 2 3.46875 2 6.5C2 7.6875 2.46875 8.8125 3.375 9.78125C3.625 10.0938 3.71875 10.4688 3.5625 10.8125C3.21875 11.7188 2.65625 12.5312 2.28125 13C3.6875 12.8438 4.8125 12.25 5.5 11.75C5.75 11.5625 6.09375 11.5312 6.375 11.625C7.21875 11.875 8.09375 12 9 12C12.8438 12 15.9688 9.53125 15.9688 6.5C15.9688 3.46875 12.8438 1 9 1ZM9 0C13.4062 0 16.9688 2.9375 16.9688 6.5C16.9688 10.0938 13.4062 13 9 13C7.96875 13 7 12.8438 6.09375 12.5625C5.15625 13.2188 3.65625 14 1.75 14C1.4375 14 1.15625 13.8438 1.03125 13.5625C0.9375 13.2812 0.96875 12.9688 1.1875 12.75C1.21875 12.75 2.1875 11.6875 2.625 10.4688C1.59375 9.375 1 8 1 6.5C1 2.9375 4.5625 0 9 0Z"
        fill="white" />
</svg>